<?xml version="1.0" encoding="UTF-8"?>
<svg version="1.1" viewBox="0 0 2048 536" width="664" height="174" xmlns="http://www.w3.org/2000/svg">
<path transform="translate(0)" d="m0 0h2048v536h-2048z" fill="#140C4B"/>
<path transform="translate(74,79)" d="m0 0h347l1 1-1 346h-62l-1-120-1-3-27-16-6-4-1-80-7-8-9-10-7-8-9-10-9-11-11-12-9-11-10-11-7-8-3-2v65l-7 8-34 32-12 11-7 7-8 7-3 3-1 35-9 7-21 13-4 3-1 123h-61z" fill="#140C4B"/>
<path transform="translate(67,70)" d="m0 0h361l4 2 1 63v257l-1 42-2 2-10 1h-350l-4-2-1-2v-361zm7 9v347h61l1-123 9-6 19-12 6-5 1-35 9-9 8-7 9-9 8-7 33-31 4-5v-65l7 6 9 10 9 11 10 11 9 11 12 13 7 8 9 10 7 8 2 3 1 80 21 13 12 7 1 3 1 120h62l1-346-1-1z" fill="#A6A0F2"/>
<path transform="translate(1258,173)" d="m0 0h35l15 3 12 6 7 8 3 9v10l-4 10-9 9-13 6 14 3 10 5 7 7 5 10 1 5v8l-2 9-6 10-9 7-11 5-5 1h-66l-2-3 11-6 2-4 1-106 1-4h-12l-2-2 1-5z" fill="#837AFD"/>
<path transform="translate(1926,197)" d="m0 0h10l5 4 1 2v6l-6 5-6-1-5-4-5 1-4 8 2 4 6 10 1 3v14l-4 10-8 10-10 6-11 3h-24l-6 3-3 3v7l9 3 8 1 21 1 16 3 10 4 8 7 4 9v9l-4 10-7 7-8 5-12 4-5 1h-25l-16-4-9-6-6-7-2-9 3-9 7-8 4-3h2l-4-4-6-5-1-2v-10l6-9 9-5h2v-2l-5-2-7-7-4-7-1-4v-15l4-10 9-10 10-6 6-2h21l14 5 2-5 5-7z" fill="#837AFE"/>
<path transform="translate(252,138)" d="m0 0h2l9 11 13 14 9 11 13 14 7 8 8 10v69l-11-6-21-13-4-2 1 4v166l-1 1h-24z" fill="#140C4B"/>
<path transform="translate(859,163)" d="m0 0h4v134h13v7h-27l-1-1v-7l-10 7-10 4-6 1h-9l-13-4-10-7-6-8-5-11-2-11v-13l3-14 6-12 9-10 12-7 6-2h23l10 3 1-30 1-7-13 1-1-6 1-1 13-2z" fill="#837AFD"/>
<path transform="translate(510,174)" d="m0 0h28l8 16 36 83 3 6 2-1 10-26 16-38 15-37 2-3h27l1 5-9 4-3 5v27l4 64v17h12l2 4-1 4h-40l-2-1v-3l8-4 3-3 1-3v-27l-4-62-2 2-11 27-12 30-17 42-3 5-5-1-8-16-13-29-21-49-5-12-1 7-1 25-1 49-1 16 11-1 3 3-1 5h-34l-2-1 2-4 8-4 2-3 1-6 3-64 2-40-12-1-2-3z" fill="#837AFD"/>
<path transform="translate(239,194)" d="m0 0h2v231h-24v-174l-20 13-16 10h-1v-14l1-11 17-16 7-7 8-7 16-15z" fill="#140C4B"/>
<path transform="translate(1069,209)" d="m0 0h25l10 5 6 8 3 8v67h13v6l-1 1h-25l-2-2 1-7-7 4-8 5-7 3-5 1h-10l-9-3-6-4-5-6-2-4v-11l5-10 7-6 14-7 16-4 15-1-1-22-3-8-5-5-3-1h-13l-8 4-3 4 1 4v7l-4 4-5 1-5-3-3-5 1-6 6-9 10-6z" fill="#837AFE"/>
<path transform="translate(712,209)" d="m0 0h23l10 4 7 6 6 9 4 13v8l-65 2v11l4 18 6 10 9 6 3 1h15l13-5 9-7 3-2 3 2-1 5-7 7-10 6-11 4-6 1h-9l-13-3-9-5-9-8-6-10-4-13v-21l4-12 5-9 7-8 9-6z" fill="#837AFD"/>
<path transform="translate(1597,163)" d="m0 0h4l1 90 8-1 2-4 13-13 7-8 8-7 1-2h-7l-4-2v-3l2-1h30l3 1v3l-11 4-14 11-18 18 1 4 10 10 20 26 9 8 6 4v3h-21l-6-4-9-10-12-17-10-13-1-1-7-1v39l11 1v5l-1 1h-37v-4l6-3 2-2 2-14v-106l-10 1-2-2v-5l13-2z" fill="#837AFD"/>
<path transform="translate(1507,215)" d="m0 0h11l8 4 5 5 5 8 4 13 1 7v18l-3 13-4 8-8 7-6 2h-11l-8-3-7-7-5-10-3-11-1-6v-16l4-16 7-10 8-5z" fill="#140C4B"/>
<path transform="translate(1397,215)" d="m0 0h11l10 5 7 9 4 10 2 11v21l-4 15-4 6-7 6-6 2h-10l-8-3-8-7-6-13-3-15v-13l3-15 5-9 5-5 6-4z" fill="#140C4B"/>
<path transform="translate(287,273)" d="m0 0 4 1 17 10 5 3v138h-25l-1-1z" fill="#140C4B"/>
<path transform="translate(205,270)" d="m0 0h2l-1 155h-25l-1-111v-27l9-7z" fill="#140C4B"/>
<path transform="translate(821,215)" d="m0 0h12l11 4 3 3v65l-5 5-8 5-8 2-9-1-8-5-6-7-5-12-1-6v-23l4-13 6-9 8-6z" fill="#140C4B"/>
<path transform="translate(1752,209)" d="m0 0 4 1v9l18-9 4-1h20l8 4 8 9 3 9 1 7 1 59 10 1 1 5-1 1h-36l-2-1 1-3 6-3 3-5 1-9v-37l-2-13-4-8-1-3-5-2-7-2-9 1-12 6-4 4-1 6v55l1 7 9 1 1 5-1 1h-37v-4l6-3 3-5 1-9 1-62h-12l-1-5 16-4z" fill="#837AFD"/>
<path transform="translate(1391,209)" d="m0 0h24l10 4 9 6 7 7 5 8 4 12v20l-4 13-6 10-8 9-10 6-8 3-6 1h-10l-12-3-12-6-9-9-7-14-2-8v-17l3-11 7-14 9-9 10-6zm6 6-8 4-5 5-5 8-3 10-1 7v13l3 15 7 14 8 7 7 2h10l8-3 7-7 4-10 2-9v-21l-3-14-5-10-5-6-10-5z" fill="#837AFE"/>
<path transform="translate(1501,209)" d="m0 0h24l12 5 8 6 8 9 6 13 1 5v18l-3 11-5 10-9 11-11 7-8 3-6 1h-10l-13-3-11-6-10-10-6-12-2-9v-18l4-13 5-9 9-10 11-7zm6 6-10 5-7 9-4 12-1 6v16l3 14 4 10 9 10 8 3h11l8-3 8-9 4-12 1-6v-18l-3-15-6-12-5-5-6-4-3-1z" fill="#837AFE"/>
<path transform="translate(324,295)" d="m0 0 14 8 10 6 1 1v115l-1 1h-23l-1-1z" fill="#140C4B"/>
<path transform="translate(169,293)" d="m0 0h1v132h-24l-1-26 1-91z" fill="#140C4B"/>
<path transform="translate(979,209)" d="m0 0h24l11 4 9 8 3 7-1 9-5 4h-6l-5-5-1-6 2-4-1-4-5-4-5-2h-14l-10 5-8 9-4 11-1 6v15l3 14 5 9 4 5 10 6 3 1h13l12-5 8-6 3-3 4 1-1 5-9 9-12 7-6 2-7 1h-9l-12-3-11-6-8-7-6-10-3-9-1-7v-13l3-12 7-13 8-9 11-7z" fill="#837AFE"/>
<path transform="translate(1273,239)" d="m0 0h19l14 3 9 5 5 7 2 6v17l-3 8-4 5-8 5-14 3h-13l-9-1-1-4 1-53z" fill="#140C4B"/>
<path transform="translate(1161,163)" d="m0 0h4v134l10 1 1 5-1 1h-37v-4l6-3 3-5 1-9 1-108-11 1-3-4v-2l10-2z" fill="#837AFD"/>
<path transform="translate(1866,310)" d="m0 0h15l18 1 13 3 8 5 3 6-1 8-4 6-9 6-10 3h-21l-11-4-8-6-2-4v-13l4-7z" fill="#140C4B"/>
<path transform="translate(1882,214)" d="m0 0 9 1 8 5 5 8 3 11v12l-3 10-6 7-6 3h-12l-7-4-6-7-3-9v-19l5-10 7-6z" fill="#140C4B"/>
<path transform="translate(1278,180)" d="m0 0h14l9 3 7 5 4 8 1 4v9l-3 10-5 7-8 5-7 2-18 1-1-1v-45l3-5z" fill="#140C4B"/>
<path transform="translate(1700,209)" d="m0 0 4 1v87l11 1 1 5-1 1h-38v-4l6-3 3-3 1-5 1-65 1-3h-13l-1-4 2-2 18-4z" fill="#837AFD"/>
<path transform="translate(913,209)" d="m0 0 4 1v87l11 1 1 4-1 2h-37l-1-4 7-3 3-7 1-66 1-3h-13v-6l16-3z" fill="#837AFE"/>
<path transform="translate(1093,258)" d="m0 0h4v28l-5 5-10 5-5 1h-8l-8-4-3-6v-10l4-6 7-6 10-4z" fill="#140C4B"/>
<path transform="translate(718,215)" d="m0 0h10l8 4 5 6 3 9v9h-47l1-8 5-10 8-7z" fill="#140C4B"/>
<path transform="translate(1692,169)" d="m0 0h8l5 6 1 7-4 6-3 2h-8l-6-6v-8l5-6z" fill="#837AFE"/>
<path transform="translate(905,169)" d="m0 0h8l5 6 1 6-3 6-4 3h-7l-6-5-1-2v-6l4-6z" fill="#837AFE"/>
<path transform="translate(323,294)" d="m0 0h1l1 131h23l1-114h1v115l-1 1h-26l-1-1v-68z" fill="#837AFE"/>
<path transform="translate(179,289)" d="m0 0h1l1 25v111h24v1h-26l-1-64v-19z" fill="#837AFE"/>
<path transform="translate(277,254)" d="m0 0 4 2h-2v45l-1 28h-1z" fill="#837AFE"/>
</svg>
